<?xml version="1.0" encoding="UTF-8"?>
<svg width="80px" height="80px" viewBox="0 0 80 80" version="1.1" xmlns="http://www.w3.org/2000/svg" xmlns:xlink="http://www.w3.org/1999/xlink">
    <!-- Generator: Sketch 48.2 (47327) - http://www.bohemiancoding.com/sketch -->
    <title>error</title>
    <desc>Created with Sketch.</desc>
    <defs></defs>
    <g id="WES-404-–-1366px" stroke="none" stroke-width="1" fill="none" fill-rule="evenodd" transform="translate(-643.000000, -293.000000)">
        <g id="welcome-copy" transform="translate(404.000000, 240.000000)" fill-rule="nonzero">
            <g id="error" transform="translate(239.000000, 53.000000)">
                <path d="M72.8084944,5 L7.19150564,5 C5.9855256,5 5,5.9724869 5,7.19150564 L5,72.8084944 C5,74.0144744 5.9724869,75 7.19150564,75 L72.8084944,75 C74.0144744,75 75,74.0275131 75,72.8084944 L75,7.19150564 C75,5.9855256 74.0144744,5 72.8084944,5 Z" id="Shape" fill="#FFFFFF"></path>
                <path d="M9,9 L9,20.8619498 L20.4206305,20.8619498 C21.6414411,20.8619498 22.6390862,21.8459801 22.6390862,23.0794686 C22.6390862,24.2997636 21.6546401,25.2969874 20.4206305,25.2969874 L9,25.2969874 L9,30.3226869 L14.0408188,30.3226869 C15.2616294,30.3226869 16.2592745,31.3067172 16.2592745,32.5402057 C16.2592745,33.7605008 15.2748285,34.7577246 14.0408188,34.7577246 L9,34.7577246 L9,71 L71,71 L71,9 L9,9 Z" id="Shape" fill="#32D1FF"></path>
                <path d="M51,41 C51,34.3872433 45.6255924,29 39,29 C32.3872433,29 27,34.3744076 27,41 C27,47.6127567 32.3744076,53 39,53 C45.6255924,52.9743286 51,47.599921 51,41 Z" id="Shape" fill="#B3EDFD"></path>
                <g id="-g-Group" fill="#293EAD">
                    <path d="M39.6498728,25.1192056 C30.3855471,25.1192056 22.8449873,32.6595618 22.8449873,41.9240911 C22.8449873,51.1886204 30.3853435,58.7289766 39.6498728,58.7289766 C48.914402,58.7289766 56.4547583,51.1886204 56.4547583,41.9240911 C56.4545547,32.6597654 48.9141985,25.1192056 39.6498728,25.1192056 Z M27.293028,41.9240911 C27.293028,35.107399 32.8331807,29.5540148 39.6631043,29.5540148 C46.4797964,29.5540148 52.0331807,35.0941674 52.0331807,41.9240911 C52.0331807,48.7407832 46.493028,54.2941674 39.6631043,54.2941674 C32.8464122,54.2677043 27.293028,48.7275517 27.293028,41.9240911 Z" id="Shape"></path>
                    <path d="M73.2331807,0 L6.65872774,0 C2.98727735,0 0,2.98727735 0,6.65872774 L0,73.2462087 C0,76.917659 2.98727735,79.9049364 6.65872774,79.9049364 L73.2462087,79.9049364 C76.917659,79.9049364 79.9049364,76.917659 79.9049364,73.2329771 L79.9049364,6.65872774 C79.9049364,2.98727735 76.9178626,0 73.2331807,0 Z M75.4570992,73.2331807 C75.4570992,74.4569975 74.4700254,75.4570992 73.2331807,75.4570992 L6.65872774,75.4570992 C5.43491094,75.4570992 4.43480916,74.470229 4.43480916,73.2331807 L4.43480916,6.65872774 C4.43480916,5.43491094 5.42167939,4.43480916 6.65872774,4.43480916 L73.2462087,4.43480916 C74.4700254,4.43480916 75.4701272,5.42167939 75.4701272,6.65872774 L75.4701272,73.2329771 L75.4570992,73.2329771 L75.4570992,73.2331807 Z" id="Shape"></path>
                    <path d="M16.1862595,11.9751654 L13.7516539,11.9751654 C12.5278372,11.9751654 11.5277354,12.9620356 11.5277354,14.199084 C11.5277354,15.4361323 12.5146056,16.4230025 13.7516539,16.4230025 L16.1862595,16.4230025 C17.4100763,16.4230025 18.4101781,15.4361323 18.4101781,14.199084 C18.4101781,12.9620356 17.4100763,11.9751654 16.1862595,11.9751654 Z" id="Shape"></path>
                    <path d="M27.9246819,11.9751654 L25.4770483,11.9751654 C24.2532316,11.9751654 23.2531298,12.9620356 23.2531298,14.199084 C23.2531298,15.4361323 24.24,16.4230025 25.4770483,16.4230025 L27.9116539,16.4230025 C29.1354707,16.4230025 30.1355725,15.4361323 30.1355725,14.199084 C30.1355725,12.9620356 29.1484987,11.9751654 27.9246819,11.9751654 Z" id="Shape"></path>
                    <path d="M39.6366412,11.9751654 L37.2020356,11.9751654 C35.9782188,11.9751654 34.978117,12.9620356 34.978117,14.199084 C34.978117,15.4361323 35.9649873,16.4230025 37.2020356,16.4230025 L39.6366412,16.4230025 C40.860458,16.4230025 41.8605598,15.4361323 41.8605598,14.199084 C41.8605598,12.9620356 40.860458,11.9751654 39.6366412,11.9751654 Z" id="Shape"></path>
                    <path d="M33.9254962,38.7395618 L35.0045802,38.7395618 C36.2283969,38.7395618 37.2284987,37.7526916 37.2284987,36.5156433 C37.2284987,35.2785949 36.2416285,34.2917247 35.0045802,34.2917247 L33.9254962,34.2917247 C32.7016794,34.2917247 31.7015776,35.2785949 31.7015776,36.5156433 C31.7146056,37.7524881 32.7014758,38.7395618 33.9254962,38.7395618 Z" id="Shape"></path>
                    <path d="M44.2819338,38.7395618 L45.3610178,38.7395618 C46.5848346,38.7395618 47.5849364,37.7526916 47.5849364,36.5156433 C47.5849364,35.2785949 46.5980662,34.2917247 45.3610178,34.2917247 L44.2819338,34.2917247 C43.058117,34.2917247 42.0580153,35.2785949 42.0580153,36.5156433 C42.0580153,37.7524881 43.0450891,38.7395618 44.2819338,38.7395618 Z" id="Shape"></path>
                    <path d="M32.5304835,48.8722845 C33.399084,49.740885 34.7938931,49.740885 35.6757252,48.8722845 C36.7415776,47.8064321 38.1628499,47.2142692 39.6763359,47.2142692 C41.1898219,47.2142692 42.5188804,47.8854143 43.6504835,48.8722845 C45.0847837,50.0961013 46.3613232,49.306483 46.7957252,48.8722845 C47.6643257,48.003684 47.6643257,46.6088748 46.7957252,45.7270428 C44.8875318,43.8188494 42.360916,42.7662285 39.6763359,42.7662285 C36.9917557,42.7662285 34.4519084,43.8190529 32.5569466,45.7270428 C31.661883,46.5956433 31.661883,48.0038875 32.5304835,48.8722845 Z" id="Shape"></path>
                </g>
            </g>
        </g>
    </g>
</svg>