<?xml version="1.0" encoding="UTF-8"?>
<svg width="466px" height="85px" viewBox="0 0 466 85" version="1.1" xmlns="http://www.w3.org/2000/svg" xmlns:xlink="http://www.w3.org/1999/xlink">
    <!-- Generator: Sketch 48.2 (47327) - http://www.bohemiancoding.com/sketch -->
    <title>-g-Page 1</title>
    <desc>Created with Sketch.</desc>
    <defs></defs>
    <g id="WES-Dashboard-Dark-Welcome-–-1366px" stroke="none" stroke-width="1" fill="none" fill-rule="evenodd" transform="translate(-451.000000, -485.000000)">
        <g id="welcome-copy" transform="translate(401.000000, 281.000000)">
            <g id="-g-Page-1" transform="translate(50.000000, 204.000000)">
                <polygon id="Fill-1" fill="#D0F3FD" points="198 49.0059583 197.524806 43 183 43.9940417 183.475194 50"></polygon>
                <polygon id="Fill-2" fill="#D0F3FD" points="329 66.3772295 324.462818 62 315 72.6227705 319.537182 77"></polygon>
                <polygon id="Fill-4" fill="#D0F3FD" points="227 74.5966285 222.364075 70 212 80.4033715 216.634416 85"></polygon>
                <polygon id="Fill-5" fill="#293EAD" points="302 1.01066408 295.409145 0 293 13.9893359 299.590855 15"></polygon>
                <polygon id="Fill-6" fill="#293EAD" points="145 6.01066408 138.409145 5 136 18.9893359 142.590855 20"></polygon>
                <polygon id="Fill-8" fill="#293EAD" points="360.418196 44 357 49.4730607 369.581804 57 373 51.5269393"></polygon>
                <polygon id="Fill-10" fill="#293EAD" points="5.20717046 18 0 22.0034632 8.79433233 34 14 29.9965368"></polygon>
                <polygon id="Fill-11" fill="#D0F3FD" points="30.6830224 44 26 48.2326222 35.3155345 59 40 54.7673778"></polygon>
                <polygon id="Fill-12" fill="#32D1FF" points="132.518483 43 129 48.3563866 141.481517 56 145 50.6436134"></polygon>
                <polygon id="Fill-13" fill="#32D1FF" points="255 40.4083183 260.273215 44 268 31.593201 262.726785 28"></polygon>
                <polygon id="Fill-14" fill="#32D1FF" points="53 76.2520516 53.5303406 83 68 81.7479484 67.4696594 75"></polygon>
                <polygon id="Fill-15" fill="#32D1FF" points="396 21.1245091 400.965356 25 409 12.8754909 404.034644 9"></polygon>
                <polygon id="Fill-17" fill="#32D1FF" points="276.892013 84 282 79.9053963 273.107987 68 268 72.0946037"></polygon>
                <polygon id="Fill-19" fill="#32D1FF" points="90 45.8688309 84.7761085 43 79 56.1311691 84.2238915 59"></polygon>
                <polygon id="Fill-20" fill="#FFAE50" points="466 22.740089 461.82312 18 451 27.259911 455.17688 32"></polygon>
                <polygon id="Fill-21" fill="#FFAE50" points="159.800122 85 165 82.1111111 159.199878 69 154 71.8888889"></polygon>
                <polygon id="Fill-22" fill="#FFAE50" points="437 70.740089 432.82312 66 422 75.259911 426.17688 80"></polygon>
                <polygon id="Fill-23" fill="#FFAE50" points="71 23.49814 69.9392474 17 56 19.50186 57.0607526 26"></polygon>
                <polygon id="Fill-24" fill="#FFAE50" points="224.238168 18 228 12.9133538 215.761832 5 212 10.0866462"></polygon>
                <polygon id="Fill-25" fill="#FFAE50" points="327.537675 38 331 32.577808 318.462325 25 315 30.4207186"></polygon>
                <polygon id="Fill-26" fill="#FFAE50" points="112 72.1325619 106.623276 69 100 81.8674381 105.37531 85"></polygon>
            </g>
        </g>
    </g>
</svg>