<?xml version="1.0" encoding="utf-8"?>
<!-- Generator: Adobe Illustrator 20.1.0, SVG Export Plug-In . SVG Version: 6.00 Build 0)  -->
<svg version="1.1" xmlns="http://www.w3.org/2000/svg" xmlns:xlink="http://www.w3.org/1999/xlink" x="0px" y="0px"
	 viewBox="0 0 473 139" style="enable-background:new 0 0 473 139;" xml:space="preserve">
<style type="text/css">
	.st0{display:none;}
	.st1{display:inline;}
	.st2{fill-rule:evenodd;clip-rule:evenodd;fill:#FFFFFF;}
	.st3{fill-rule:evenodd;clip-rule:evenodd;fill:#52DEFC;}
	.st4{clip-path:url(#SVGID_2_);}
	.st5{fill:#32428E;}
	.st6{fill:#FFFFFF;}
	.st7{fill-rule:evenodd;clip-rule:evenodd;fill:#32428E;}
	.st8{clip-path:url(#SVGID_4_);}
</style>
<g id="Layer_1">
	<g class="st0">
		<g class="st1">
			<path class="st2" d="M151.4,46.2c1.5-8.1,0.5-19.4-5-26.4c-3.2-4.2-7.8-6.5-13.6-6.9h0c-21.2-1.5-63.5-7.7-65.3-8l-0.1,0
				C53.9,2.5,37,10.3,34.3,24.2l-2.9,31.9C28,76.8,41.2,87.4,54.8,90.6l35.7,4.2l1,1.4c6.8,9.3,16.8,20.3,25.6,25.5
				c-2.1-4.7-4.1-11.3-3.8-19.8l0.2-4.3l8.5,1c10.4,1.9,23-7.2,25-18L151.4,46.2z"/>
			<path class="st3" d="M86.5,101.8l-32.9-3.9C32,93,20.4,76,23.8,54.5L26.5,26c-0.6,0-1.1,0.1-1.7,0.1c-5.6,0.4-10.1,2.7-13.2,6.7
				c-5.3,6.8-6.2,17.8-4.8,25.7l0,0.2L10.9,92c2,10.5,14.2,19.3,24.3,17.5l0.8-0.1l4.3-0.5l0.2,4.3c0.4,8.4-1.5,14.9-3.5,19.6
				c11.3-6.6,22.7-21.9,25.1-25.1l1-1.4l24.6-2.9C87.3,102.8,86.9,102.3,86.5,101.8z"/>
			<g>
				<defs>
					<path id="SVGID_1_" d="M151.4,46.2c1.5-8.1,0.5-19.4-5-26.4c-3.2-4.2-7.8-6.5-13.6-6.9h0c-21.2-1.5-63.5-7.7-65.3-8l-0.1,0
						C53.9,2.5,37,10.3,34.3,24.2l-2.9,31.9C28,76.8,41.2,87.4,54.8,90.6l35.7,4.2l1,1.4c6.8,9.3,16.8,20.3,25.6,25.5
						c-2.1-4.7-4.1-11.3-3.8-19.8l0.2-4.3l8.5,1c10.4,1.9,23-7.2,25-18L151.4,46.2z"/>
				</defs>
				<clipPath id="SVGID_2_">
					<use xlink:href="#SVGID_1_"  style="overflow:visible;"/>
				</clipPath>
				<g class="st4">
					<path class="st5" d="M186.4,63.7c-4.7-0.3-24.8-3.1-54.7-26.1C102,14.7,93-4.9,91.2-9.6c-0.3,0.3-0.5,0.6-0.8,0.9
						c-1,1.4-2,2.7-2.9,4.1c3.8,8.2,14.4,26,41,46.4c26.1,20.1,45.2,25.4,53.9,26.8c1.2-1.3,2.3-2.6,3.4-4
						C186,64.3,186.2,64,186.4,63.7z"/>
					<path class="st5" d="M82.6,5.5l-0.3,0.1l0,0c-1,2.6-1.9,5.2-2.5,7.9C83.6,22.4,93.4,39,117,57.1c22,16.9,39.3,22.3,49.2,24
						c2.6-1.4,5-2.9,7.4-4.6c-5.1-0.1-25.3-2.1-53.4-23.7C87.8,27.9,82.7,5.7,82.6,5.5z"/>
					<path class="st5" d="M193.4,51.5c0.7-1.7,1.4-3.5,2-5.3c-5.1,0-22.3-2-50.7-23.8C116.4,0.6,108-17.4,105.9-22.9
						c-1.6,1-3.1,2-4.5,3.2c3,7.4,12.5,25.1,40.1,46.3C168.1,47.1,185.8,50.9,193.4,51.5z"/>
					<path class="st5" d="M78,26c-0.2,5.6,0.4,11.2,1.8,16.7c4.9,7.9,13.1,17.9,26.8,28.4c12.2,9.4,22.7,14.3,30.9,17
						c6.2,0.1,12.4-0.9,18.3-2.7c-2.5,0.3-20.1,1.4-46-18.5C84,46.9,78.7,28.7,78,26z"/>
					<path class="st6" d="M157,90.6c0.1,0,0.2,0,0.2,0v0C157.1,90.6,157,90.6,157,90.6z"/>
					<path class="st5" d="M102.6,77.2c-2.3-1.6-4.2-3.4-5.8-5.1c-3.4-2.1-7-3.8-10.7-5.2c1.4,2.3,5.4,8.5,12.2,13.8
						c0.4,0.3,0.9,0.6,1.3,0.9c6.6,4.7,12.1,6.4,14.9,7.1c-2.2-3.1-4.7-6.1-7.6-8.8C105.5,79.1,104.1,78.2,102.6,77.2z"/>
				</g>
			</g>
		</g>
		<g class="st1">
			<path class="st6" d="M193.7,50.2h-9.1l-9.9-28h12.1l3.2,9.1l3.4-9.1h8.6l3.6,9.1l3.1-9.1h12.1l-9.4,28h-9.1l-4.4-11.1L193.7,50.2
				z"/>
			<path class="st6" d="M235.2,50.6c-4,0-7.4-1.4-10.2-4.2c-2.8-2.8-4.2-6.2-4.2-10.3c0-4,1.4-7.4,4.2-10.2
				c2.8-2.8,6.2-4.2,10.2-4.2c4,0,7.4,1.4,10.2,4.2c2.8,2.8,4.2,6.2,4.2,10.2c0,4-1.4,7.5-4.2,10.3
				C242.6,49.2,239.2,50.6,235.2,50.6z M235.2,32.5c-0.8,0-1.5,0.3-2,0.8c-0.5,0.6-0.8,1.3-0.8,2.1c0,0.8,0.3,1.5,0.8,2.1
				c0.5,0.6,1.2,0.8,2,0.8c0.8,0,1.5-0.3,2-0.8c0.5-0.6,0.8-1.3,0.8-2.1c0-0.8-0.3-1.5-0.8-2.1C236.7,32.8,236,32.5,235.2,32.5z"/>
			<path class="st6" d="M254,22.2h18.3c3.2,0,5.7,0.8,7.5,2.4c1.8,1.6,2.7,3.6,2.7,6c0,2.6-1.1,4.7-3.2,6.2c3,3.4,4.8,7.9,5.4,13.4
				h-12.9c-0.2-3.5-0.8-6.1-1.6-7.8c-0.8-1.7-2.1-2.5-3.9-2.5v10.4H254V22.2z M266.4,28v5.4h0.3c2.2,0,3.3-0.9,3.3-2.6
				c0-0.7-0.2-1.4-0.7-1.9c-0.5-0.6-1.2-0.8-2.3-0.8H266.4z"/>
			<path class="st6" d="M287.6,50.2v-28H300v21h10.9v7H287.6z"/>
			<path class="st6" d="M313.9,22.2h13.8c5,0,8.8,1.4,11.5,4.1c2.7,2.7,4.1,6.1,4.1,9.9c0,2.5-0.6,4.8-1.8,7c-1.2,2.2-3,3.9-5.4,5.1
				c-2.4,1.2-5.2,1.8-8.6,1.8h-13.5V22.2z M326.3,32.9v6.6h0.3c1.5,0,2.6-0.3,3.2-0.8c0.7-0.5,1-1.4,1-2.6c0-2.2-1.3-3.2-3.8-3.2
				H326.3z"/>
			<path class="st6" d="M361.8,50.2h-9.1l-9.9-28h12.1l3.2,9.1l3.4-9.1h8.6l3.6,9.1l3.1-9.1h12.1l-9.4,28h-9.1l-4.4-11.1L361.8,50.2
				z"/>
			<path class="st6" d="M391.8,50.2v-28h12.4v28H391.8z"/>
			<path class="st6" d="M409.8,22.2h13.8c5,0,8.8,1.4,11.5,4.1c2.7,2.7,4.1,6.1,4.1,9.9c0,2.5-0.6,4.8-1.8,7c-1.2,2.2-3,3.9-5.4,5.1
				c-2.4,1.2-5.2,1.8-8.6,1.8h-13.5V22.2z M422.2,32.9v6.6h0.3c1.5,0,2.6-0.3,3.2-0.8c0.7-0.5,1-1.4,1-2.6c0-2.2-1.3-3.2-3.8-3.2
				H422.2z"/>
			<path class="st6" d="M466.2,43.2v7H443v-28h23.2v7h-10.9v3.5h7.6v7h-7.6v3.4H466.2z"/>
			<path class="st6" d="M196.9,91.3c-1.3,1.6-2.6,2.8-4.2,3.4c-1.5,0.6-3.3,1-5.2,1c-1.7,0-3.1-0.3-4.5-0.9
				c-1.3-0.6-2.4-1.4-3.4-2.4c-0.9-1-1.6-2.2-2.1-3.5c-0.5-1.4-0.7-2.8-0.7-4.3c0-1.6,0.3-3.1,0.8-4.5c0.5-1.4,1.3-2.5,2.3-3.5
				c1-1,2.1-1.7,3.4-2.3c1.3-0.5,2.8-0.8,4.3-0.8c1.5,0,2.8,0.2,4.1,0.7c1.2,0.5,2.3,1.2,3.2,2.2c0.9,0.9,1.6,2.1,2.1,3.5
				c0.5,1.4,0.7,2.9,0.7,4.7v1.1h-17.1c0.1,0.9,0.3,1.8,0.7,2.6c0.4,0.8,0.9,1.6,1.5,2.2c0.6,0.6,1.3,1.1,2.1,1.5
				c0.8,0.4,1.7,0.5,2.7,0.5c1.5,0,2.8-0.3,3.9-0.8c1.1-0.5,2-1.3,2.8-2.4L196.9,91.3z M193.9,82.7c-0.1-1.8-0.6-3.3-1.8-4.3
				c-1.1-1.1-2.6-1.6-4.6-1.6c-2,0-3.5,0.5-4.7,1.6c-1.2,1.1-1.9,2.5-2.2,4.3H193.9z"/>
			<path class="st6" d="M200.9,79c0-1,0-1.9-0.1-2.7c-0.1-0.8-0.1-1.6-0.1-2.3h3.3c0,0.6,0,1.1,0,1.7c0,0.6,0,1.2,0,1.8h0.1
				c0.2-0.5,0.6-1,1-1.5c0.4-0.5,1-0.9,1.6-1.3c0.6-0.4,1.3-0.7,2-0.9c0.8-0.2,1.6-0.3,2.4-0.3c1.4,0,2.6,0.2,3.6,0.6
				c1,0.4,1.8,1,2.5,1.8c0.7,0.8,1.2,1.7,1.5,2.7c0.3,1.1,0.5,2.2,0.5,3.5v13h-3.5V82.4c0-1.8-0.4-3.2-1.2-4.2c-0.8-1-2-1.5-3.7-1.5
				c-1.1,0-2.1,0.2-3,0.6c-0.8,0.4-1.5,0.9-2,1.7c-0.5,0.7-0.9,1.6-1.2,2.6c-0.3,1-0.4,2.1-0.4,3.3v10.3h-3.5V79z"/>
			<path class="st6" d="M244.8,94.2c0,3.9-1,6.8-3,8.8c-2,2-4.8,3-8.6,3c-2.1,0-4-0.3-5.6-0.9c-1.7-0.6-3.3-1.6-4.8-3.1l2.5-2.9
				c1.1,1.2,2.3,2.1,3.5,2.7c1.2,0.6,2.7,0.9,4.3,0.9c1.6,0,2.9-0.2,3.9-0.7c1-0.5,1.9-1.1,2.5-1.9c0.6-0.8,1-1.7,1.3-2.7
				c0.2-1,0.4-2.1,0.4-3.2v-2.7h-0.1c-0.8,1.4-1.9,2.3-3.3,3c-1.4,0.6-2.7,0.9-4.2,0.9c-1.7,0-3.2-0.3-4.6-0.8
				c-1.4-0.5-2.6-1.3-3.6-2.3c-1-1-1.8-2.1-2.3-3.4c-0.5-1.3-0.8-2.8-0.8-4.3c0-1.7,0.3-3.3,0.8-4.7c0.5-1.4,1.3-2.6,2.3-3.5
				c1-0.9,2.2-1.7,3.5-2.2c1.4-0.5,2.9-0.8,4.6-0.8c0.7,0,1.4,0.1,2.2,0.2c0.7,0.2,1.4,0.4,2.1,0.8c0.7,0.3,1.3,0.8,1.8,1.3
				c0.5,0.5,1,1.1,1.4,1.8h0.1V74h3.5V94.2z M226.3,84.6c0,1.1,0.2,2.1,0.6,3c0.4,0.9,0.9,1.7,1.6,2.4c0.7,0.7,1.5,1.2,2.4,1.6
				c0.9,0.4,1.9,0.6,2.9,0.6c1.2,0,2.3-0.2,3.2-0.6c0.9-0.4,1.7-1,2.4-1.7c0.6-0.7,1.1-1.5,1.5-2.4c0.3-0.9,0.5-1.9,0.5-2.9
				c0-1.1-0.2-2.2-0.5-3.1c-0.4-0.9-0.9-1.8-1.5-2.5c-0.7-0.7-1.5-1.2-2.4-1.6c-0.9-0.4-2-0.6-3.1-0.6c-1.1,0-2.1,0.2-3,0.6
				c-0.9,0.4-1.7,1-2.3,1.7c-0.6,0.7-1.2,1.5-1.5,2.5C226.5,82.4,226.3,83.4,226.3,84.6z"/>
			<path class="st6" d="M249.4,61h3.5v34.1h-3.5V61z"/>
			<path class="st6" d="M257.6,65.7c0-0.7,0.2-1.3,0.7-1.8c0.5-0.5,1.1-0.8,1.8-0.8c0.7,0,1.3,0.3,1.8,0.8c0.5,0.5,0.7,1.1,0.7,1.8
				c0,0.8-0.2,1.4-0.7,1.9c-0.5,0.5-1.1,0.7-1.9,0.7s-1.4-0.2-1.9-0.7C257.9,67.1,257.6,66.5,257.6,65.7z M258.4,74h3.5v21.1h-3.5
				V74z"/>
			<path class="st6" d="M267.6,89.6c0.7,0.9,1.5,1.6,2.3,2.1c0.8,0.5,1.9,0.8,3.1,0.8c0.5,0,1.1-0.1,1.6-0.2
				c0.6-0.1,1.1-0.3,1.5-0.6c0.5-0.3,0.8-0.6,1.1-1c0.3-0.4,0.4-0.9,0.4-1.5c0-0.6-0.1-1-0.4-1.4c-0.3-0.4-0.6-0.7-1-0.9
				c-0.4-0.3-0.9-0.5-1.4-0.6c-0.5-0.2-1.1-0.3-1.7-0.4c-1-0.2-1.9-0.5-2.8-0.7c-0.9-0.3-1.7-0.6-2.4-1.1c-0.7-0.4-1.2-1-1.6-1.7
				c-0.4-0.7-0.6-1.6-0.6-2.7c0-1,0.2-1.9,0.7-2.7c0.5-0.8,1.1-1.4,1.8-1.9c0.8-0.5,1.6-0.9,2.5-1.2c0.9-0.3,1.9-0.4,2.9-0.4
				c1.5,0,2.9,0.3,4.2,0.9c1.3,0.6,2.3,1.6,3,2.9l-2.9,1.9c-0.5-0.8-1-1.4-1.8-1.8c-0.7-0.5-1.6-0.7-2.7-0.7c-0.5,0-1,0.1-1.5,0.2
				c-0.5,0.1-0.9,0.3-1.3,0.5c-0.4,0.2-0.7,0.5-1,0.9c-0.3,0.4-0.4,0.8-0.4,1.3c0,0.5,0.1,0.8,0.4,1.2c0.3,0.3,0.7,0.6,1.2,0.8
				c0.5,0.2,1.1,0.5,1.7,0.6c0.6,0.2,1.3,0.3,2,0.5c0.9,0.2,1.8,0.4,2.7,0.7c0.8,0.3,1.6,0.7,2.2,1.2c0.6,0.5,1.1,1.1,1.5,1.8
				c0.4,0.7,0.5,1.6,0.5,2.7c0,1.2-0.2,2.2-0.7,3.1c-0.5,0.8-1.1,1.5-1.9,2.1c-0.8,0.5-1.7,0.9-2.7,1.2c-1,0.2-2,0.4-3.1,0.4
				c-1.8,0-3.4-0.3-4.7-0.8c-1.3-0.6-2.5-1.6-3.5-3.1L267.6,89.6z"/>
			<path class="st6" d="M285,61h3.5v15.9h0.1c0.2-0.4,0.6-0.8,1-1.2c0.4-0.4,0.9-0.8,1.5-1.1c0.6-0.3,1.2-0.6,2-0.8
				c0.7-0.2,1.5-0.3,2.3-0.3c1.4,0,2.6,0.2,3.6,0.6c1,0.4,1.8,1,2.5,1.8c0.7,0.8,1.2,1.7,1.5,2.7c0.3,1.1,0.5,2.2,0.5,3.5v13h-3.5
				V82.4c0-1.8-0.4-3.2-1.2-4.2c-0.8-1-2-1.5-3.7-1.5c-1.1,0-2.1,0.2-3,0.6c-0.8,0.4-1.5,0.9-2,1.7c-0.5,0.7-0.9,1.6-1.2,2.6
				c-0.3,1-0.4,2.1-0.4,3.3v10.3H285V61z"/>
			<path class="st6" d="M320.4,89.6c0.7,0.9,1.5,1.6,2.3,2.1c0.8,0.5,1.9,0.8,3.1,0.8c0.5,0,1.1-0.1,1.6-0.2
				c0.6-0.1,1.1-0.3,1.5-0.6c0.5-0.3,0.8-0.6,1.1-1c0.3-0.4,0.4-0.9,0.4-1.5c0-0.6-0.1-1-0.4-1.4c-0.3-0.4-0.6-0.7-1-0.9
				c-0.4-0.3-0.9-0.5-1.4-0.6c-0.5-0.2-1.1-0.3-1.7-0.4c-1-0.2-1.9-0.5-2.8-0.7c-0.9-0.3-1.7-0.6-2.4-1.1c-0.7-0.4-1.2-1-1.6-1.7
				c-0.4-0.7-0.6-1.6-0.6-2.7c0-1,0.2-1.9,0.7-2.7c0.5-0.8,1.1-1.4,1.8-1.9c0.8-0.5,1.6-0.9,2.5-1.2c0.9-0.3,1.9-0.4,2.9-0.4
				c1.5,0,2.9,0.3,4.2,0.9c1.3,0.6,2.3,1.6,3,2.9l-2.9,1.9c-0.5-0.8-1-1.4-1.8-1.8c-0.7-0.5-1.6-0.7-2.7-0.7c-0.5,0-1,0.1-1.5,0.2
				c-0.5,0.1-0.9,0.3-1.3,0.5c-0.4,0.2-0.7,0.5-1,0.9c-0.3,0.4-0.4,0.8-0.4,1.3c0,0.5,0.1,0.8,0.4,1.2c0.3,0.3,0.7,0.6,1.2,0.8
				c0.5,0.2,1.1,0.5,1.7,0.6c0.6,0.2,1.3,0.3,2,0.5c0.9,0.2,1.8,0.4,2.7,0.7c0.8,0.3,1.6,0.7,2.2,1.2c0.6,0.5,1.1,1.1,1.5,1.8
				c0.4,0.7,0.5,1.6,0.5,2.7c0,1.2-0.2,2.2-0.7,3.1c-0.5,0.8-1.1,1.5-1.9,2.1c-0.8,0.5-1.7,0.9-2.7,1.2c-1,0.2-2,0.4-3.1,0.4
				c-1.8,0-3.4-0.3-4.7-0.8c-1.3-0.6-2.5-1.6-3.5-3.1L320.4,89.6z"/>
			<path class="st6" d="M356.7,91.3c-1.3,1.6-2.6,2.8-4.2,3.4c-1.5,0.6-3.3,1-5.2,1c-1.7,0-3.1-0.3-4.5-0.9
				c-1.3-0.6-2.4-1.4-3.4-2.4c-0.9-1-1.6-2.2-2.1-3.5c-0.5-1.4-0.7-2.8-0.7-4.3c0-1.6,0.3-3.1,0.8-4.5c0.5-1.4,1.3-2.5,2.3-3.5
				c1-1,2.1-1.7,3.4-2.3c1.3-0.5,2.8-0.8,4.3-0.8c1.5,0,2.8,0.2,4.1,0.7c1.2,0.5,2.3,1.2,3.2,2.2c0.9,0.9,1.6,2.1,2.1,3.5
				c0.5,1.4,0.7,2.9,0.7,4.7v1.1h-17.1c0.1,0.9,0.3,1.8,0.7,2.6c0.4,0.8,0.9,1.6,1.5,2.2c0.6,0.6,1.3,1.1,2.1,1.5
				c0.8,0.4,1.7,0.5,2.7,0.5c1.5,0,2.8-0.3,3.9-0.8c1.1-0.5,2-1.3,2.8-2.4L356.7,91.3z M353.7,82.7c-0.1-1.8-0.6-3.3-1.8-4.3
				c-1.1-1.1-2.6-1.6-4.6-1.6c-2,0-3.5,0.5-4.7,1.6c-1.2,1.1-1.9,2.5-2.2,4.3H353.7z"/>
			<path class="st6" d="M361.6,79c0-1,0-1.9-0.1-2.7c-0.1-0.8-0.1-1.6-0.1-2.3h3.3c0,0.6,0,1.1,0,1.7c0,0.6,0,1.2,0,1.8h0.1
				c0.2-0.5,0.6-1,1-1.5c0.4-0.5,1-0.9,1.6-1.3c0.6-0.4,1.3-0.7,2-0.9c0.8-0.2,1.6-0.3,2.4-0.3c0.2,0,0.5,0,0.7,0
				c0.2,0,0.5,0.1,0.7,0.2l-0.2,3.6c-0.6-0.2-1.2-0.3-1.9-0.3c-2.2,0-3.7,0.7-4.7,2.1c-1,1.4-1.5,3.3-1.5,5.8v10.3h-3.5V79z"/>
			<path class="st6" d="M388,95.1h-3.9L375.5,74h4.1l6.6,16.6h0.1l6.3-16.6h3.8L388,95.1z"/>
			<path class="st6" d="M398.3,65.7c0-0.7,0.2-1.3,0.7-1.8c0.5-0.5,1.1-0.8,1.8-0.8c0.7,0,1.3,0.3,1.8,0.8c0.5,0.5,0.7,1.1,0.7,1.8
				c0,0.8-0.2,1.4-0.7,1.9c-0.5,0.5-1.1,0.7-1.9,0.7c-0.8,0-1.4-0.2-1.9-0.7C398.6,67.1,398.3,66.5,398.3,65.7z M399.1,74h3.5v21.1
				h-3.5V74z"/>
			<path class="st6" d="M422.4,79.3c-0.8-0.9-1.6-1.6-2.4-2c-0.9-0.4-1.8-0.6-2.9-0.6c-1.2,0-2.2,0.2-3.1,0.6
				c-0.9,0.4-1.6,1-2.2,1.7c-0.6,0.7-1,1.6-1.3,2.5c-0.3,0.9-0.5,2-0.5,3c0,1.1,0.2,2.1,0.5,3c0.3,0.9,0.8,1.8,1.4,2.5
				c0.6,0.7,1.4,1.3,2.2,1.7c0.9,0.4,1.9,0.6,2.9,0.6c2.3,0,4.1-0.9,5.4-2.6l2.6,2.5c-1,1.2-2.2,2-3.6,2.6c-1.4,0.5-2.8,0.8-4.4,0.8
				c-1.6,0-3.1-0.3-4.5-0.8c-1.4-0.5-2.5-1.3-3.5-2.3c-0.9-1-1.7-2.2-2.2-3.5c-0.5-1.4-0.8-2.8-0.8-4.5c0-1.6,0.3-3.1,0.8-4.4
				c0.5-1.4,1.3-2.5,2.2-3.5c1-1,2.1-1.8,3.5-2.3c1.3-0.6,2.8-0.8,4.4-0.8c1.6,0,3,0.3,4.4,0.8c1.4,0.5,2.6,1.4,3.7,2.5L422.4,79.3z
				"/>
			<path class="st6" d="M447.1,91.3c-1.3,1.6-2.6,2.8-4.2,3.4c-1.5,0.6-3.3,1-5.2,1c-1.7,0-3.1-0.3-4.5-0.9
				c-1.3-0.6-2.4-1.4-3.4-2.4c-0.9-1-1.6-2.2-2.1-3.5s-0.7-2.8-0.7-4.3c0-1.6,0.3-3.1,0.8-4.5c0.5-1.4,1.3-2.5,2.3-3.5
				c1-1,2.1-1.7,3.4-2.3c1.3-0.5,2.8-0.8,4.3-0.8c1.5,0,2.8,0.2,4.1,0.7c1.2,0.5,2.3,1.2,3.2,2.2c0.9,0.9,1.6,2.1,2.1,3.5
				c0.5,1.4,0.7,2.9,0.7,4.7v1.1h-17.1c0.1,0.9,0.3,1.8,0.7,2.6c0.4,0.8,0.9,1.6,1.5,2.2c0.6,0.6,1.3,1.1,2.1,1.5
				c0.8,0.4,1.7,0.5,2.7,0.5c1.5,0,2.8-0.3,3.9-0.8c1.1-0.5,2-1.3,2.8-2.4L447.1,91.3z M444.1,82.7c-0.1-1.8-0.6-3.3-1.8-4.3
				c-1.1-1.1-2.6-1.6-4.6-1.6c-2,0-3.5,0.5-4.7,1.6c-1.2,1.1-1.9,2.5-2.2,4.3H444.1z"/>
			<path class="st6" d="M453.4,89.6c0.7,0.9,1.5,1.6,2.3,2.1c0.8,0.5,1.9,0.8,3.1,0.8c0.5,0,1.1-0.1,1.6-0.2
				c0.6-0.1,1.1-0.3,1.5-0.6c0.5-0.3,0.8-0.6,1.1-1c0.3-0.4,0.4-0.9,0.4-1.5c0-0.6-0.1-1-0.4-1.4c-0.3-0.4-0.6-0.7-1-0.9
				c-0.4-0.3-0.9-0.5-1.4-0.6c-0.5-0.2-1.1-0.3-1.7-0.4c-1-0.2-1.9-0.5-2.8-0.7c-0.9-0.3-1.7-0.6-2.4-1.1c-0.7-0.4-1.2-1-1.6-1.7
				c-0.4-0.7-0.6-1.6-0.6-2.7c0-1,0.2-1.9,0.7-2.7c0.5-0.8,1.1-1.4,1.8-1.9c0.8-0.5,1.6-0.9,2.5-1.2c0.9-0.3,1.9-0.4,2.9-0.4
				c1.5,0,2.9,0.3,4.2,0.9c1.3,0.6,2.3,1.6,3,2.9l-2.9,1.9c-0.5-0.8-1-1.4-1.8-1.8c-0.7-0.5-1.6-0.7-2.7-0.7c-0.5,0-1,0.1-1.5,0.2
				c-0.5,0.1-0.9,0.3-1.3,0.5c-0.4,0.2-0.7,0.5-1,0.9c-0.3,0.4-0.4,0.8-0.4,1.3c0,0.5,0.1,0.8,0.4,1.2c0.3,0.3,0.7,0.6,1.2,0.8
				c0.5,0.2,1.1,0.5,1.7,0.6c0.6,0.2,1.3,0.3,2,0.5c0.9,0.2,1.8,0.4,2.7,0.7c0.8,0.3,1.6,0.7,2.2,1.2c0.6,0.5,1.1,1.1,1.5,1.8
				c0.4,0.7,0.5,1.6,0.5,2.7c0,1.2-0.2,2.2-0.7,3.1c-0.5,0.8-1.1,1.5-1.9,2.1c-0.8,0.5-1.7,0.9-2.7,1.2c-1,0.2-2,0.4-3.1,0.4
				c-1.8,0-3.4-0.3-4.7-0.8c-1.3-0.6-2.5-1.6-3.5-3.1L453.4,89.6z"/>
		</g>
	</g>
	<g>
		<path class="st3" d="M150.1,46.5c1.5-8.1,0.5-19.4-5-26.4c-3.2-4.2-7.8-6.5-13.6-6.9h0c-21.2-1.5-63.5-7.7-65.3-8l-0.1,0
			C52.6,2.8,35.7,10.6,33,24.6l-2.9,31.9C26.7,77.1,40,87.7,53.6,90.9l35.7,4.2l1,1.4c6.8,9.3,16.8,20.3,25.6,25.5
			c-2.1-4.7-4.1-11.3-3.8-19.8l0.2-4.3l8.5,1c10.4,1.9,23-7.2,25-18L150.1,46.5z"/>
		<path class="st7" d="M85.2,102.1l-32.9-3.9c-21.6-4.9-33.3-21.9-29.8-43.4l2.6-28.5c-0.6,0-1.1,0.1-1.7,0.1
			c-5.6,0.4-10.1,2.7-13.2,6.7C5,40,4,51,5.5,58.8l0,0.2l4.1,33.3c2,10.5,14.2,19.3,24.3,17.5l0.8-0.1l4.3-0.5l0.2,4.3
			c0.4,8.4-1.5,14.9-3.5,19.6c11.3-6.6,22.7-21.9,25.1-25.1l1-1.4l24.6-2.9C86,103.1,85.6,102.6,85.2,102.1z"/>
		<g>
			<defs>
				<path id="SVGID_3_" d="M150.1,46.5c1.5-8.1,0.5-19.4-5-26.4c-3.2-4.2-7.8-6.5-13.6-6.9h0c-21.2-1.5-63.5-7.7-65.3-8l-0.1,0
					C52.6,2.8,35.7,10.6,33,24.6l-2.9,31.9C26.7,77.1,40,87.7,53.6,90.9l35.7,4.2l1,1.4c6.8,9.3,16.8,20.3,25.6,25.5
					c-2.1-4.7-4.1-11.3-3.8-19.8l0.2-4.3l8.5,1c10.4,1.9,23-7.2,25-18L150.1,46.5z"/>
			</defs>
			<clipPath id="SVGID_4_">
				<use xlink:href="#SVGID_3_"  style="overflow:visible;"/>
			</clipPath>
			<g class="st8">
				<path class="st6" d="M185.2,64c-4.7-0.3-24.8-3.1-54.7-26.1C100.8,15,91.8-4.6,89.9-9.3c-0.3,0.3-0.5,0.6-0.8,0.9
					c-1,1.4-2,2.7-2.9,4.1c3.8,8.2,14.4,26,41,46.4c26.1,20.1,45.2,25.4,53.9,26.8c1.2-1.3,2.3-2.6,3.4-4
					C184.7,64.6,184.9,64.3,185.2,64z"/>
				<path class="st6" d="M81.3,5.8L81,5.9l0,0c-1,2.6-1.9,5.2-2.5,7.9c3.9,8.9,13.7,25.6,37.2,43.6c22,16.9,39.3,22.3,49.2,24
					c2.6-1.4,5-2.9,7.4-4.6c-5.1-0.1-25.3-2.1-53.4-23.7C86.5,28.2,81.4,6,81.3,5.8z"/>
				<path class="st6" d="M192.1,51.8c0.7-1.7,1.4-3.5,2-5.3c-5.1,0-22.3-2-50.7-23.8c-28.4-21.8-36.8-39.8-38.8-45.2
					c-1.6,1-3.1,2-4.5,3.2c3,7.4,12.5,25.1,40.1,46.3C166.8,47.4,184.5,51.2,192.1,51.8z"/>
				<path class="st6" d="M76.7,26.3c-0.2,5.6,0.4,11.2,1.8,16.7c4.9,7.9,13.1,17.9,26.8,28.4c12.2,9.4,22.7,14.3,30.9,17
					c6.2,0.1,12.4-0.9,18.3-2.7c-2.5,0.3-20.1,1.4-46-18.5C82.7,47.2,77.4,29,76.7,26.3z"/>
				<path class="st6" d="M155.7,90.9c0.1,0,0.2,0,0.2,0v0C155.8,90.9,155.8,90.9,155.7,90.9z"/>
				<path class="st6" d="M101.3,77.5c-2.3-1.6-4.2-3.4-5.8-5.1c-3.4-2.1-7-3.8-10.7-5.2c1.4,2.3,5.4,8.5,12.2,13.8
					c0.4,0.3,0.9,0.6,1.3,0.9c6.6,4.7,12.1,6.4,14.9,7.1c-2.2-3.1-4.7-6.1-7.6-8.8C104.2,79.4,102.8,78.5,101.3,77.5z"/>
			</g>
		</g>
		<g>
			<path class="st5" d="M192.4,50.5h-9.1l-9.9-28h12.1l3.2,9.1l3.4-9.1h8.6l3.6,9.1l3.1-9.1h12.1l-9.4,28h-9.1l-4.4-11.1L192.4,50.5
				z"/>
			<path class="st5" d="M233.9,51c-4,0-7.4-1.4-10.2-4.2c-2.8-2.8-4.2-6.2-4.2-10.3c0-4,1.4-7.4,4.2-10.2c2.8-2.8,6.2-4.2,10.2-4.2
				c4,0,7.4,1.4,10.2,4.2c2.8,2.8,4.2,6.2,4.2,10.2c0,4-1.4,7.5-4.2,10.3C241.3,49.5,237.9,51,233.9,51z M233.9,32.8
				c-0.8,0-1.5,0.3-2,0.8c-0.5,0.6-0.8,1.3-0.8,2.1c0,0.8,0.3,1.5,0.8,2.1c0.5,0.6,1.2,0.8,2,0.8c0.8,0,1.5-0.3,2-0.8
				c0.5-0.6,0.8-1.3,0.8-2.1c0-0.8-0.3-1.5-0.8-2.1C235.4,33.1,234.7,32.8,233.9,32.8z"/>
			<path class="st5" d="M252.7,22.5H271c3.2,0,5.7,0.8,7.5,2.4c1.8,1.6,2.7,3.6,2.7,6c0,2.6-1.1,4.7-3.2,6.2c3,3.4,4.8,7.9,5.4,13.4
				h-12.9c-0.2-3.5-0.8-6.1-1.6-7.8c-0.8-1.7-2.1-2.5-3.9-2.5v10.4h-12.4V22.5z M265.1,28.3v5.4h0.3c2.2,0,3.3-0.9,3.3-2.6
				c0-0.7-0.2-1.4-0.7-1.9c-0.5-0.6-1.2-0.8-2.3-0.8H265.1z"/>
			<path class="st5" d="M286.3,50.5v-28h12.4v21h10.9v7H286.3z"/>
			<path class="st5" d="M312.6,22.5h13.8c5,0,8.8,1.4,11.5,4.1c2.7,2.7,4.1,6.1,4.1,9.9c0,2.5-0.6,4.8-1.8,7c-1.2,2.2-3,3.9-5.4,5.1
				c-2.4,1.2-5.2,1.8-8.6,1.8h-13.5V22.5z M325,33.2v6.6h0.3c1.5,0,2.6-0.3,3.2-0.8c0.7-0.5,1-1.4,1-2.6c0-2.2-1.3-3.2-3.8-3.2H325z
				"/>
			<path class="st5" d="M360.6,50.5h-9.1l-9.9-28h12.1l3.2,9.1l3.4-9.1h8.6l3.6,9.1l3.1-9.1h12.1l-9.4,28h-9.1l-4.4-11.1L360.6,50.5
				z"/>
			<path class="st5" d="M390.5,50.5v-28h12.4v28H390.5z"/>
			<path class="st5" d="M408.5,22.5h13.8c5,0,8.8,1.4,11.5,4.1c2.7,2.7,4.1,6.1,4.1,9.9c0,2.5-0.6,4.8-1.8,7c-1.2,2.2-3,3.9-5.4,5.1
				c-2.4,1.2-5.2,1.8-8.6,1.8h-13.5V22.5z M420.9,33.2v6.6h0.3c1.5,0,2.6-0.3,3.2-0.8c0.7-0.5,1-1.4,1-2.6c0-2.2-1.3-3.2-3.8-3.2
				H420.9z"/>
			<path class="st5" d="M464.9,43.5v7h-23.2v-28h23.2v7h-10.9V33h7.6v7h-7.6v3.4H464.9z"/>
			<path class="st5" d="M195.6,91.6c-1.3,1.6-2.6,2.8-4.2,3.4c-1.5,0.6-3.3,1-5.2,1c-1.7,0-3.1-0.3-4.5-0.9
				c-1.3-0.6-2.4-1.4-3.4-2.4c-0.9-1-1.6-2.2-2.1-3.5c-0.5-1.4-0.7-2.8-0.7-4.3c0-1.6,0.3-3.1,0.8-4.5c0.5-1.4,1.3-2.5,2.3-3.5
				c1-1,2.1-1.7,3.4-2.3c1.3-0.5,2.8-0.8,4.3-0.8c1.5,0,2.8,0.2,4.1,0.7c1.2,0.5,2.3,1.2,3.2,2.2c0.9,0.9,1.6,2.1,2.1,3.5
				c0.5,1.4,0.7,2.9,0.7,4.7V86h-17.1c0.1,0.9,0.3,1.8,0.7,2.6c0.4,0.8,0.9,1.6,1.5,2.2c0.6,0.6,1.3,1.1,2.1,1.5
				c0.8,0.4,1.7,0.5,2.7,0.5c1.5,0,2.8-0.3,3.9-0.8c1.1-0.5,2-1.3,2.8-2.4L195.6,91.6z M192.6,83c-0.1-1.8-0.6-3.3-1.8-4.3
				c-1.1-1.1-2.6-1.6-4.6-1.6c-2,0-3.5,0.5-4.7,1.6c-1.2,1.1-1.9,2.5-2.2,4.3H192.6z"/>
			<path class="st5" d="M199.6,79.3c0-1,0-1.9-0.1-2.7c-0.1-0.8-0.1-1.6-0.1-2.3h3.3c0,0.6,0,1.1,0,1.7c0,0.6,0,1.2,0,1.8h0.1
				c0.2-0.5,0.6-1,1-1.5c0.4-0.5,1-0.9,1.6-1.3c0.6-0.4,1.3-0.7,2-0.9c0.8-0.2,1.6-0.3,2.4-0.3c1.4,0,2.6,0.2,3.6,0.6
				c1,0.4,1.8,1,2.5,1.8c0.7,0.8,1.2,1.7,1.5,2.7c0.3,1.1,0.5,2.2,0.5,3.5v13h-3.5V82.7c0-1.8-0.4-3.2-1.2-4.2c-0.8-1-2-1.5-3.7-1.5
				c-1.1,0-2.1,0.2-3,0.6c-0.8,0.4-1.5,0.9-2,1.7c-0.5,0.7-0.9,1.6-1.2,2.6c-0.3,1-0.4,2.1-0.4,3.3v10.3h-3.5V79.3z"/>
			<path class="st5" d="M243.5,94.5c0,3.9-1,6.8-3,8.8c-2,2-4.8,3-8.6,3c-2.1,0-4-0.3-5.6-0.9c-1.7-0.6-3.3-1.6-4.8-3.1l2.5-2.9
				c1.1,1.2,2.3,2.1,3.5,2.7c1.2,0.6,2.7,0.9,4.3,0.9c1.6,0,2.9-0.2,3.9-0.7c1-0.5,1.9-1.1,2.5-1.9c0.6-0.8,1-1.7,1.3-2.7
				c0.2-1,0.4-2.1,0.4-3.2v-2.7h-0.1c-0.8,1.4-1.9,2.3-3.3,3c-1.4,0.6-2.7,0.9-4.2,0.9c-1.7,0-3.2-0.3-4.6-0.8
				c-1.4-0.5-2.6-1.3-3.6-2.3c-1-1-1.8-2.1-2.3-3.4c-0.5-1.3-0.8-2.8-0.8-4.3c0-1.7,0.3-3.3,0.8-4.7c0.5-1.4,1.3-2.6,2.3-3.5
				c1-0.9,2.2-1.7,3.5-2.2c1.4-0.5,2.9-0.8,4.6-0.8c0.7,0,1.4,0.1,2.2,0.2c0.7,0.2,1.4,0.4,2.1,0.8c0.7,0.3,1.3,0.8,1.8,1.3
				c0.5,0.5,1,1.1,1.4,1.8h0.1v-3.6h3.5V94.5z M225,84.9c0,1.1,0.2,2.1,0.6,3c0.4,0.9,0.9,1.7,1.6,2.4c0.7,0.7,1.5,1.2,2.4,1.6
				c0.9,0.4,1.9,0.6,2.9,0.6c1.2,0,2.3-0.2,3.2-0.6c0.9-0.4,1.7-1,2.4-1.7c0.6-0.7,1.1-1.5,1.5-2.4c0.3-0.9,0.5-1.9,0.5-2.9
				c0-1.1-0.2-2.2-0.5-3.1c-0.4-0.9-0.9-1.8-1.5-2.5c-0.7-0.7-1.5-1.2-2.4-1.6c-0.9-0.4-2-0.6-3.1-0.6c-1.1,0-2.1,0.2-3,0.6
				c-0.9,0.4-1.7,1-2.3,1.7c-0.6,0.7-1.2,1.5-1.5,2.5C225.2,82.7,225,83.8,225,84.9z"/>
			<path class="st5" d="M248.1,61.3h3.5v34.1h-3.5V61.3z"/>
			<path class="st5" d="M256.3,66c0-0.7,0.2-1.3,0.7-1.8c0.5-0.5,1.1-0.8,1.8-0.8s1.3,0.3,1.8,0.8c0.5,0.5,0.7,1.1,0.7,1.8
				c0,0.8-0.2,1.4-0.7,1.9c-0.5,0.5-1.1,0.7-1.9,0.7s-1.4-0.2-1.9-0.7C256.6,67.4,256.3,66.8,256.3,66z M257.2,74.3h3.5v21.1h-3.5
				V74.3z"/>
			<path class="st5" d="M266.3,89.9c0.7,0.9,1.5,1.6,2.3,2.1c0.8,0.5,1.9,0.8,3.1,0.8c0.5,0,1.1-0.1,1.6-0.2
				c0.6-0.1,1.1-0.3,1.5-0.6c0.5-0.3,0.8-0.6,1.1-1c0.3-0.4,0.4-0.9,0.4-1.5c0-0.6-0.1-1-0.4-1.4c-0.3-0.4-0.6-0.7-1-0.9
				c-0.4-0.3-0.9-0.5-1.4-0.6c-0.5-0.2-1.1-0.3-1.7-0.4c-1-0.2-1.9-0.5-2.8-0.7c-0.9-0.3-1.7-0.6-2.4-1.1c-0.7-0.4-1.2-1-1.6-1.7
				c-0.4-0.7-0.6-1.6-0.6-2.7c0-1,0.2-1.9,0.7-2.7c0.5-0.8,1.1-1.4,1.8-1.9c0.8-0.5,1.6-0.9,2.5-1.2c0.9-0.3,1.9-0.4,2.9-0.4
				c1.5,0,2.9,0.3,4.2,0.9c1.3,0.6,2.3,1.6,3,2.9l-2.9,1.9c-0.5-0.8-1-1.4-1.8-1.8c-0.7-0.5-1.6-0.7-2.7-0.7c-0.5,0-1,0.1-1.5,0.2
				c-0.5,0.1-0.9,0.3-1.3,0.5c-0.4,0.2-0.7,0.5-1,0.9c-0.3,0.4-0.4,0.8-0.4,1.3c0,0.5,0.1,0.8,0.4,1.2c0.3,0.3,0.7,0.6,1.2,0.8
				c0.5,0.2,1.1,0.5,1.7,0.6c0.6,0.2,1.3,0.3,2,0.5c0.9,0.2,1.8,0.4,2.7,0.7c0.8,0.3,1.6,0.7,2.2,1.2c0.6,0.5,1.1,1.1,1.5,1.8
				c0.4,0.7,0.5,1.6,0.5,2.7c0,1.2-0.2,2.2-0.7,3.1c-0.5,0.8-1.1,1.5-1.9,2.1c-0.8,0.5-1.7,0.9-2.7,1.2c-1,0.2-2,0.4-3.1,0.4
				c-1.8,0-3.4-0.3-4.7-0.8c-1.3-0.6-2.5-1.6-3.5-3.1L266.3,89.9z"/>
			<path class="st5" d="M283.7,61.3h3.5v15.9h0.1c0.2-0.4,0.6-0.8,1-1.2c0.4-0.4,0.9-0.8,1.5-1.1c0.6-0.3,1.2-0.6,2-0.8
				c0.7-0.2,1.5-0.3,2.3-0.3c1.4,0,2.6,0.2,3.6,0.6c1,0.4,1.8,1,2.5,1.8c0.7,0.8,1.2,1.7,1.5,2.7c0.3,1.1,0.5,2.2,0.5,3.5v13h-3.5
				V82.7c0-1.8-0.4-3.2-1.2-4.2c-0.8-1-2-1.5-3.7-1.5c-1.1,0-2.1,0.2-3,0.6c-0.8,0.4-1.5,0.9-2,1.7c-0.5,0.7-0.9,1.6-1.2,2.6
				c-0.3,1-0.4,2.1-0.4,3.3v10.3h-3.5V61.3z"/>
			<path class="st5" d="M319.1,89.9c0.7,0.9,1.5,1.6,2.3,2.1c0.8,0.5,1.9,0.8,3.1,0.8c0.5,0,1.1-0.1,1.6-0.2
				c0.6-0.1,1.1-0.3,1.5-0.6c0.5-0.3,0.8-0.6,1.1-1c0.3-0.4,0.4-0.9,0.4-1.5c0-0.6-0.1-1-0.4-1.4c-0.3-0.4-0.6-0.7-1-0.9
				c-0.4-0.3-0.9-0.5-1.4-0.6c-0.5-0.2-1.1-0.3-1.7-0.4c-1-0.2-1.9-0.5-2.8-0.7c-0.9-0.3-1.7-0.6-2.4-1.1c-0.7-0.4-1.2-1-1.6-1.7
				c-0.4-0.7-0.6-1.6-0.6-2.7c0-1,0.2-1.9,0.7-2.7c0.5-0.8,1.1-1.4,1.8-1.9c0.8-0.5,1.6-0.9,2.5-1.2c0.9-0.3,1.9-0.4,2.9-0.4
				c1.5,0,2.9,0.3,4.2,0.9c1.3,0.6,2.3,1.6,3,2.9l-2.9,1.9c-0.5-0.8-1-1.4-1.8-1.8c-0.7-0.5-1.6-0.7-2.7-0.7c-0.5,0-1,0.1-1.5,0.2
				c-0.5,0.1-0.9,0.3-1.3,0.5c-0.4,0.2-0.7,0.5-1,0.9c-0.3,0.4-0.4,0.8-0.4,1.3c0,0.5,0.1,0.8,0.4,1.2c0.3,0.3,0.7,0.6,1.2,0.8
				c0.5,0.2,1.1,0.5,1.7,0.6c0.6,0.2,1.3,0.3,2,0.5c0.9,0.2,1.8,0.4,2.7,0.7c0.8,0.3,1.6,0.7,2.2,1.2c0.6,0.5,1.1,1.1,1.5,1.8
				c0.4,0.7,0.5,1.6,0.5,2.7c0,1.2-0.2,2.2-0.7,3.1c-0.5,0.8-1.1,1.5-1.9,2.1c-0.8,0.5-1.7,0.9-2.7,1.2c-1,0.2-2,0.4-3.1,0.4
				c-1.8,0-3.4-0.3-4.7-0.8c-1.3-0.6-2.5-1.6-3.5-3.1L319.1,89.9z"/>
			<path class="st5" d="M355.5,91.6c-1.3,1.6-2.6,2.8-4.2,3.4c-1.5,0.6-3.3,1-5.2,1c-1.7,0-3.1-0.3-4.5-0.9
				c-1.3-0.6-2.4-1.4-3.4-2.4c-0.9-1-1.6-2.2-2.1-3.5c-0.5-1.4-0.7-2.8-0.7-4.3c0-1.6,0.3-3.1,0.8-4.5c0.5-1.4,1.3-2.5,2.3-3.5
				c1-1,2.1-1.7,3.4-2.3c1.3-0.5,2.8-0.8,4.3-0.8c1.5,0,2.8,0.2,4.1,0.7c1.2,0.5,2.3,1.2,3.2,2.2c0.9,0.9,1.6,2.1,2.1,3.5
				c0.5,1.4,0.7,2.9,0.7,4.7V86h-17.1c0.1,0.9,0.3,1.8,0.7,2.6c0.4,0.8,0.9,1.6,1.5,2.2c0.6,0.6,1.3,1.1,2.1,1.5
				c0.8,0.4,1.7,0.5,2.7,0.5c1.5,0,2.8-0.3,3.9-0.8c1.1-0.5,2-1.3,2.8-2.4L355.5,91.6z M352.4,83c-0.1-1.8-0.6-3.3-1.8-4.3
				c-1.1-1.1-2.6-1.6-4.6-1.6c-2,0-3.5,0.5-4.7,1.6c-1.2,1.1-1.9,2.5-2.2,4.3H352.4z"/>
			<path class="st5" d="M360.3,79.3c0-1,0-1.9-0.1-2.7c-0.1-0.8-0.1-1.6-0.1-2.3h3.3c0,0.6,0,1.1,0,1.7c0,0.6,0,1.2,0,1.8h0.1
				c0.2-0.5,0.6-1,1-1.5c0.4-0.5,1-0.9,1.6-1.3c0.6-0.4,1.3-0.7,2-0.9c0.8-0.2,1.6-0.3,2.4-0.3c0.2,0,0.5,0,0.7,0
				c0.2,0,0.5,0.1,0.7,0.2l-0.2,3.6c-0.6-0.2-1.2-0.3-1.9-0.3c-2.2,0-3.7,0.7-4.7,2.1c-1,1.4-1.5,3.3-1.5,5.8v10.3h-3.5V79.3z"/>
			<path class="st5" d="M386.7,95.4h-3.9l-8.6-21.1h4.1l6.6,16.6h0.1l6.3-16.6h3.8L386.7,95.4z"/>
			<path class="st5" d="M397,66c0-0.7,0.2-1.3,0.7-1.8c0.5-0.5,1.1-0.8,1.8-0.8c0.7,0,1.3,0.3,1.8,0.8c0.5,0.5,0.7,1.1,0.7,1.8
				c0,0.8-0.2,1.4-0.7,1.9c-0.5,0.5-1.1,0.7-1.9,0.7c-0.8,0-1.4-0.2-1.9-0.7C397.3,67.4,397,66.8,397,66z M397.9,74.3h3.5v21.1h-3.5
				V74.3z"/>
			<path class="st5" d="M421.2,79.6c-0.8-0.9-1.6-1.6-2.4-2c-0.9-0.4-1.8-0.6-2.9-0.6c-1.2,0-2.2,0.2-3.1,0.6
				c-0.9,0.4-1.6,1-2.2,1.7c-0.6,0.7-1,1.6-1.3,2.5c-0.3,0.9-0.5,2-0.5,3c0,1.1,0.2,2.1,0.5,3c0.3,0.9,0.8,1.8,1.4,2.5
				c0.6,0.7,1.4,1.3,2.2,1.7c0.9,0.4,1.9,0.6,2.9,0.6c2.3,0,4.1-0.9,5.4-2.6l2.6,2.5c-1,1.2-2.2,2-3.6,2.6c-1.4,0.5-2.8,0.8-4.4,0.8
				c-1.6,0-3.1-0.3-4.5-0.8c-1.4-0.5-2.5-1.3-3.5-2.3c-0.9-1-1.7-2.2-2.2-3.5c-0.5-1.4-0.8-2.8-0.8-4.5c0-1.6,0.3-3.1,0.8-4.4
				c0.5-1.4,1.3-2.5,2.2-3.5c1-1,2.1-1.8,3.5-2.3c1.3-0.6,2.8-0.8,4.4-0.8c1.6,0,3,0.3,4.4,0.8c1.4,0.5,2.6,1.4,3.7,2.5L421.2,79.6z
				"/>
			<path class="st5" d="M445.8,91.6c-1.3,1.6-2.6,2.8-4.2,3.4c-1.5,0.6-3.3,1-5.2,1c-1.7,0-3.1-0.3-4.5-0.9
				c-1.3-0.6-2.4-1.4-3.4-2.4c-0.9-1-1.6-2.2-2.1-3.5s-0.7-2.8-0.7-4.3c0-1.6,0.3-3.1,0.8-4.5c0.5-1.4,1.3-2.5,2.3-3.5
				c1-1,2.1-1.7,3.4-2.3c1.3-0.5,2.8-0.8,4.3-0.8c1.5,0,2.8,0.2,4.1,0.7c1.2,0.5,2.3,1.2,3.2,2.2c0.9,0.9,1.6,2.1,2.1,3.5
				c0.5,1.4,0.7,2.9,0.7,4.7V86h-17.1c0.1,0.9,0.3,1.8,0.7,2.6c0.4,0.8,0.9,1.6,1.5,2.2c0.6,0.6,1.3,1.1,2.1,1.5
				c0.8,0.4,1.7,0.5,2.7,0.5c1.5,0,2.8-0.3,3.9-0.8c1.1-0.5,2-1.3,2.8-2.4L445.8,91.6z M442.8,83c-0.1-1.8-0.6-3.3-1.8-4.3
				c-1.1-1.1-2.6-1.6-4.6-1.6c-2,0-3.5,0.5-4.7,1.6c-1.2,1.1-1.9,2.5-2.2,4.3H442.8z"/>
			<path class="st5" d="M452.1,89.9c0.7,0.9,1.5,1.6,2.3,2.1c0.8,0.5,1.9,0.8,3.1,0.8c0.5,0,1.1-0.1,1.6-0.2
				c0.6-0.1,1.1-0.3,1.5-0.6c0.5-0.3,0.8-0.6,1.1-1c0.3-0.4,0.4-0.9,0.4-1.5c0-0.6-0.1-1-0.4-1.4c-0.3-0.4-0.6-0.7-1-0.9
				c-0.4-0.3-0.9-0.5-1.4-0.6c-0.5-0.2-1.1-0.3-1.7-0.4c-1-0.2-1.9-0.5-2.8-0.7c-0.9-0.3-1.7-0.6-2.4-1.1c-0.7-0.4-1.2-1-1.6-1.7
				c-0.4-0.7-0.6-1.6-0.6-2.7c0-1,0.2-1.9,0.7-2.7c0.5-0.8,1.1-1.4,1.8-1.9c0.8-0.5,1.6-0.9,2.5-1.2c0.9-0.3,1.9-0.4,2.9-0.4
				c1.5,0,2.9,0.3,4.2,0.9c1.3,0.6,2.3,1.6,3,2.9l-2.9,1.9c-0.5-0.8-1-1.4-1.8-1.8c-0.7-0.5-1.6-0.7-2.7-0.7c-0.5,0-1,0.1-1.5,0.2
				c-0.5,0.1-0.9,0.3-1.3,0.5c-0.4,0.2-0.7,0.5-1,0.9c-0.3,0.4-0.4,0.8-0.4,1.3c0,0.5,0.1,0.8,0.4,1.2c0.3,0.3,0.7,0.6,1.2,0.8
				c0.5,0.2,1.1,0.5,1.7,0.6c0.6,0.2,1.3,0.3,2,0.5c0.9,0.2,1.8,0.4,2.7,0.7c0.8,0.3,1.6,0.7,2.2,1.2c0.6,0.5,1.1,1.1,1.5,1.8
				c0.4,0.7,0.5,1.6,0.5,2.7c0,1.2-0.2,2.2-0.7,3.1c-0.5,0.8-1.1,1.5-1.9,2.1c-0.8,0.5-1.7,0.9-2.7,1.2c-1,0.2-2,0.4-3.1,0.4
				c-1.8,0-3.4-0.3-4.7-0.8c-1.3-0.6-2.5-1.6-3.5-3.1L452.1,89.9z"/>
		</g>
	</g>
</g>
<g id="Layer_2">
</g>
</svg>
