<?xml version="1.0" encoding="UTF-8"?>
<svg width="364px" height="181px" viewBox="0 0 364 181" version="1.1" xmlns="http://www.w3.org/2000/svg" xmlns:xlink="http://www.w3.org/1999/xlink">
    <!-- Generator: Sketch 48.2 (47327) - http://www.bohemiancoding.com/sketch -->
    <title>illustration</title>
    <desc>Created with Sketch.</desc>
    <defs>
        <polygon id="path-1" points="10.4093064 0.535198276 0.2548 0.535198276 0.2548 10.6772836 10.4093064 10.6772836 10.4093064 0.535198276"></polygon>
    </defs>
    <g id="WES-Payment-–-1366px" stroke="none" stroke-width="1" fill="none" fill-rule="evenodd" transform="translate(-786.000000, -321.000000)">
        <g id="body" transform="translate(-41.000000, 0.000000)">
            <g id="discount-copy" transform="translate(734.000000, 252.000000)">
                <g id="illustration" transform="translate(93.000000, 69.000000)">
                    <g id="-g-Group-51">
                        <g id="Group-3" transform="translate(0.000000, 102.202586)" fill="#293EAD">
                            <path d="M19.3372266,10.2839987 C19.3372266,15.6172573 15.0082824,19.9409728 9.66857425,19.9409728 C4.32886609,19.9409728 -7.8111588e-05,15.6172573 -7.8111588e-05,10.2839987 C-7.8111588e-05,4.95074009 4.32886609,0.627024569 9.66857425,0.627024569 C15.0082824,0.627024569 19.3372266,4.95074009 19.3372266,10.2839987" id="Fill-1"></path>
                        </g>
                        <path d="M32.0635571,86.4764948 C32.0635571,89.2773138 29.7905099,91.5476155 26.987085,91.5476155 C24.1820979,91.5476155 21.9090506,89.2773138 21.9090506,86.4764948 C21.9090506,83.6756759 24.1820979,81.4053741 26.987085,81.4053741 C29.7905099,81.4053741 32.0635571,83.6756759 32.0635571,86.4764948" id="Fill-4" fill="#293EAD"></path>
                        <path d="M55.3990034,84.526844 C55.3990034,86.2502448 54.0000249,87.6475336 52.275321,87.6475336 C50.5490549,87.6475336 49.1500764,86.2502448 49.1500764,84.526844 C49.1500764,82.8034431 50.5490549,81.4061543 52.275321,81.4061543 C54.0000249,81.4061543 55.3990034,82.8034431 55.3990034,84.526844" id="Fill-6" fill="#293EAD"></path>
                        <path d="M334.457182,124.619592 C334.457182,128.987778 330.911697,132.52898 326.537448,132.52898 C322.164761,132.52898 318.619276,128.987778 318.619276,124.619592 C318.619276,120.251407 322.164761,116.710204 326.537448,116.710204 C330.911697,116.710204 334.457182,120.251407 334.457182,124.619592" id="Fill-8" fill="#293EAD"></path>
                        <path d="M347.889485,10.6771276 C347.889485,13.4779466 345.614876,15.7482483 342.812232,15.7482483 C340.008807,15.7482483 337.734979,13.4779466 337.734979,10.6771276 C337.734979,7.87630862 340.008807,5.6060069 342.812232,5.6060069 C345.614876,5.6060069 347.889485,7.87630862 347.889485,10.6771276" id="Fill-10" fill="#293EAD"></path>
                        <path d="M200.775682,176.333789 C200.775682,178.495647 199.020515,180.248694 196.856043,180.248694 C194.69079,180.248694 192.935622,178.495647 192.935622,176.333789 C192.935622,174.170371 194.69079,172.418103 196.856043,172.418103 C199.020515,172.418103 200.775682,174.170371 200.775682,176.333789" id="Fill-12" fill="#FFAE50"></path>
                        <path d="M66.3666515,165.102895 C66.3666515,167.264753 64.6114841,169.01858 62.4462309,169.01858 C60.2817588,169.01858 58.5265914,167.264753 58.5265914,165.102895 C58.5265914,162.939477 60.2817588,161.187209 62.4462309,161.187209 C64.6114841,161.187209 66.3666515,162.939477 66.3666515,165.102895" id="Fill-14" fill="#FFAE50"></path>
                        <path d="M46.6869837,58.5209668 C46.6869837,60.6828246 44.9318163,62.435872 42.7665631,62.435872 C40.602091,62.435872 38.8469236,60.6828246 38.8469236,58.5209668 C38.8469236,56.3575487 40.602091,54.6052815 42.7665631,54.6052815 C44.9318163,54.6052815 46.6869837,56.3575487 46.6869837,58.5209668" id="Fill-16" fill="#FFAE50"></path>
                        <path d="M151.536481,158.765866 C151.536481,161.565125 149.263433,163.836987 146.458446,163.836987 C143.655021,163.836987 141.381974,161.565125 141.381974,158.765866 C141.381974,155.965828 143.655021,153.693966 146.458446,153.693966 C149.263433,153.693966 151.536481,155.965828 151.536481,158.765866" id="Fill-18" fill="#293EAD"></path>
                        <polygon id="Fill-20" fill="#32D1FF" points="342.812232 33.3146884 327.91479 42.5659728 326.102601 23.0616625"></polygon>
                        <polygon id="Fill-22" fill="#32D1FF" points="363.353939 125.244354 344.819621 136.752678 342.56454 112.486975"></polygon>
                        <polygon id="Fill-24" fill="#32D1FF" points="42.7668755 112.846556 32.0398112 119.508449 30.7337854 105.465345"></polygon>
                        <polygon id="Fill-26" fill="#32D1FF" points="226.223657 154.748759 207.689339 166.257862 205.433476 141.991379"></polygon>
                        <polygon id="Fill-28" fill="#FFAE50" points="348.179357 68.7130612 345.769615 82.7561647 332.914009 73.3246603"></polygon>
                        <polygon id="Fill-30" fill="#FFAE50" points="46.5142009 148.62893 32.1971279 153.83346 26.9863039 139.53368 41.3033768 134.32915"></polygon>
                        <polygon id="Fill-32" fill="#FFAE50" points="320.58019 152.736694 311.913709 155.88703 308.760344 147.231017 317.426044 144.081461"></polygon>
                        <g id="Group-36" transform="translate(311.665236, 0.000000)">
                            <mask id="mask-2" fill="white">
                                <use xlink:href="#path-1"></use>
                            </mask>
                            <g id="Clip-35"></g>
                            <polygon id="Fill-34" fill="#FFAE50" mask="url(#mask-2)" points="10.4093064 7.97086552 2.96683433 10.6772836 0.2548 3.24146034 7.69649099 0.535042241"></polygon>
                        </g>
                        <path d="M9.555,13.2964784 C12.3584249,13.2332845 14.6814635,15.4544353 14.7447339,18.2521336 C14.8080043,21.0513922 12.5865107,23.3739655 9.78308584,23.4363793 C6.97966094,23.4995733 4.6558412,21.2792026 4.59257082,18.4807241 C4.53008155,15.6822457 6.75157511,13.3596724 9.555,13.2964784" id="Fill-37" fill="#293EAD"></path>
                        <polygon id="Fill-39" fill="#32D1FF" points="38.9936172 7.29016509 48.5880635 21.9589668 29.1054712 24.2058634"></polygon>
                        <polygon id="Fill-41" fill="#FFAE50" points="18.6468764 31.1852078 21.5229451 38.5562767 14.1398378 41.4312121 11.2645502 34.0609233"></polygon>
                        <polygon id="Fill-43" fill="#32D1FF" points="183.051382 165.768694 169.502146 161.764849 173.511614 148.232759 187.060069 152.236603"></polygon>
                        <path d="M290.23415,169.01741 C290.23415,171.179268 288.478983,172.933875 286.31373,172.933875 C284.149258,172.933875 282.39409,171.179268 282.39409,169.01741 C282.39409,166.855552 284.149258,165.102505 286.31373,165.102505 C288.478983,165.102505 290.23415,166.855552 290.23415,169.01741" id="Fill-45" fill="#32D1FF"></path>
                        <path d="M315.840144,62.4354819 C315.840144,64.5973397 314.084977,66.3519474 311.919724,66.3519474 C309.755252,66.3519474 308.000084,64.5973397 308.000084,62.4354819 C308.000084,60.2736241 309.755252,58.5205767 311.919724,58.5205767 C314.084977,58.5205767 315.840144,60.2736241 315.840144,62.4354819" id="Fill-47" fill="#FFAE50"></path>
                        <path d="M296.049792,9.52020991 C296.049792,11.6820677 294.294625,13.4366754 292.130153,13.4366754 C289.9649,13.4366754 288.209732,11.6820677 288.209732,9.52020991 C288.209732,7.35835216 289.9649,5.60530474 292.130153,5.60530474 C294.294625,5.60530474 296.049792,7.35835216 296.049792,9.52020991" id="Fill-49" fill="#32D1FF"></path>
                    </g>
                </g>
            </g>
        </g>
    </g>
</svg>